# xmcd
#
# Track frame offsets:
#	150
#	12317
#	24325
#	33892
#	47389
#	65077
#	84815
#	97145
#	106112
#	120000
#	139995
#	157701
#	169536
#	183201
#	198906
#	220308
#
# Disc length: 3234 seconds
#
# Revision: 1
# Processed by: cddbd v1.5.1PL0 Copyright (c) Steve Scherf et al.
# Submitted via: audiograbber 1.81.02
#
DISCID=ba0ca010
DTITLE=Sunshine Kids - Playback-CD Singen, Spielen, Lachen
DYEAR=2005
DGENRE=Chorus
TTITLE0=Baumhaus
TTITLE1=Das A-B-C
TTITLE2=Rechnen ist nicht schwer
TTITLE3=Die Tonleiter
TTITLE4=Ich bin so froh
TTITLE5=Geburtstagsmomente
TTITLE6=Ganz tierisch
TTITLE7=Geburtstagslied
TTITLE8=Kunterbunte Welt
TTITLE9=Muttertag
TTITLE10=Die Wochentage
TTITLE11=Aufgepasst
TTITLE12=Uhren
TTITLE13=Die Schöpfung
TTITLE14=Schöne Ferien
TTITLE15=Verkleiden
EXTD=
EXTT0=
EXTT1=
EXTT2=
EXTT3=
EXTT4=
EXTT5=
EXTT6=
EXTT7=
EXTT8=
EXTT9=
EXTT10=
EXTT11=
EXTT12=
EXTT13=
EXTT14=
EXTT15=
PLAYORDER=
